<svg xmlns="http://www.w3.org/2000/svg"
     xmlns:cc="http://creativecommons.org/ns#"
     xmlns:dc="http://purl.org/dc/elements/1.1/"
     xmlns:rdf="http://www.w3.org/1999/02/22-rdf-syntax-ns#"
     height="128" width="128" viewBox="0 0 128 128">
  <metadata>
    <rdf:RDF>
      <cc:Work rdf:about="">
        <dc:format>image/svg+xml</dc:format>
        <dc:type rdf:resource="http://purl.org/dc/dcmitype/StillImage" />
        <dc:title>url2clipboard icon</dc:title>
      </cc:Work>
    </rdf:RDF>
  </metadata>
  <g id="color">
    <g id="background" fill="#FFF">
      <path d="M 34,34 H 94 V 108 H 34 Z"/>
    </g>
    <g id="board" fill="#002147">
      <path d="M 34 20 C 25.136 20 18 27.136 18 36 L 18 108
               C 18 116.864 25.136 124 34 124 L 94 124
               C 102.864 124 110 116.864 110 108 L 110 36
               C 110 27.136 102.864 20 94 20 L 34 20 z
               M 34 36 L 94 36 L 94 108 L 34 108 L 34 36 z"/>
    </g>
    <g id="clip" fill="#E66000">
      <path d="M 64 4 A 12 12 0 0 0 52 16
               L 42 16 L 42 44 L 86 44 L 86 16 L 76 16
               A 12 12 0 0 0 64 4 z"/>
    </g>
  </g>
</svg>
