<svg xmlns="http://www.w3.org/2000/svg"
     xmlns:cc="http://creativecommons.org/ns#"
     xmlns:dc="http://purl.org/dc/elements/1.1/"
     xmlns:rdf="http://www.w3.org/1999/02/22-rdf-syntax-ns#"
     height="128" width="128" viewBox="0 0 128 128">
  <metadata>
    <rdf:RDF>
      <cc:Work rdf:about="">
        <dc:format>image/svg+xml</dc:format>
        <dc:type rdf:resource="http://purl.org/dc/dcmitype/StillImage" />
        <dc:title>url2clipboard icon</dc:title>
      </cc:Work>
    </rdf:RDF>
  </metadata>
  <style>
    g:not(#color):not(:target),
    g:target ~ #color {
      display: none;
    }
  </style>
  <symbol id="board">
    <path d="M 34 20 C 25.136 20 18 27.136 18 36 L 18 108
             C 18 116.864 25.136 124 34 124 L 94 124
             C 102.864 124 110 116.864 110 108 L 110 36
             C 110 27.136 102.864 20 94 20 L 34 20 z
             M 34 36 L 94 36 L 94 108 L 34 108 L 34 36 z"/>
  </symbol>
  <symbol id="clip">
    <path d="M 64 4 A 12 12 0 0 0 52 16 L 42 16 L 42 44 L 86 44 L 86 16 L 76 16
             A 12 12 0 0 0 64 4 z"/>
  </symbol>
  <symbol id="outline">
    <path d="M 64,4 A 12,12 0 0 0 52,16 H 42 V 44 H 86 V 16 H 76
             A 12,12 0 0 0 64,4 Z
             M 34,20 c -8.864,0 -16,7.136 -16,16 v 72
             c 0,8.864 7.136,16 16,16 h 60 c 8.864,0 16,-7.136 16,-16 V 36
             c 0,-8.864 -7.136,-16 -16,-16 z
             m 0,16 h 60 v 72 H 34 Z"/>
  </symbol>
  <g id="black" fill="#000">
    <use href="#outline"/>
  </g>
  <g id="white" fill="#FFF">
    <use href="#outline"/>
  </g>
  <g id="dark" fill="#0C0C0D" fill-opacity="0.8">
    <use href="#outline"/>
  </g>
  <g id="light" fill="#F9F9FA" fill-opacity="0.8">
    <use href="#outline"/>
  </g>
  <g id="context" fill="context-fill" fill-opacity="context-fill-opacity">
    <use href="#outline"/>
  </g>
  <g id="current" fill="currentColor">
    <use href="#outline"/>
  </g>
  <g id="color">
    <use href="#board" fill="#002147"/>
    <use href="#clip" fill="#E66000"/>
  </g>
</svg>
